<svg width="236" height="61" viewBox="0 0 236 61" fill="none" xmlns="http://www.w3.org/2000/svg">
<path d="M8.85206 0.236589C7.8062 -0.118769 6.67031 0.440986 6.31495 1.48683L0.524053 18.5299C0.168707 19.5757 0.72846 20.7116 1.7743 21.067C2.82015 21.4223 3.95604 20.8626 4.3114 19.8167L9.45887 4.66737L24.6082 9.81482C25.6541 10.1702 26.79 9.61043 27.1454 8.56458C27.5007 7.51874 26.9409 6.38284 25.8951 6.02748L8.85206 0.236589ZM235.972 57.8222C211.002 21.4283 187.784 6.92113 165.84 4.24975C144.011 1.59248 123.98 10.743 105.683 20.2938C96.4538 25.1113 87.7185 30.0053 79.205 33.7615C70.7087 37.5102 62.6579 40.0173 54.9168 40.1364C47.2469 40.2543 39.772 38.0303 32.363 32.1007C24.903 26.1302 17.4445 16.348 10.0026 1.24621L6.41462 3.01432C13.9995 18.4063 21.7774 28.752 29.8636 35.2236C38.0008 41.7361 46.382 44.2681 54.9783 44.1359C63.5035 44.0048 72.1291 41.2555 80.8197 37.4212C89.4931 33.5944 98.4551 28.5788 107.534 23.8398C125.853 14.2778 144.881 5.72796 165.356 8.22044C185.715 10.6988 208.047 24.1915 232.673 60.0851L235.972 57.8222Z" fill="#CF61DC"/>
</svg>
